# xmcd CD database file
#
# Track frame offsets:
#	150
#	35008
#	70204
#	97503
#	138097
#	182339
#
# Disc length: 2757 seconds
#
# Revision: 0
# Processed by: cddbd v1.5.2PL0 Copyright (c) Steve Scherf et al.
# Submitted via: CDex 1.51
#
DISCID=400ac306
DTITLE=Loïc Dequidt Quartet - Nomade
DYEAR=2007
DGENRE=Jazz
TTITLE0=Nomade
TTITLE1=Final play
TTITLE2=Harris tweed
TTITLE3=Amhara
TTITLE4=Nordique
TTITLE5=Virvel
EXTD=YEAR: 2007
EXTT0=
EXTT1=
EXTT2=
EXTT3=
EXTT4=
EXTT5=
PLAYORDER=
